<svg width="139" height="24" viewBox="0 0 139 24" fill="none" xmlns="http://www.w3.org/2000/svg">
<path d="M3.97943 14.728H8.68343V17.5H0.388426V2.758H3.97943V14.728ZM9.68224 11.62C9.68224 10.416 9.90624 9.359 10.3542 8.449C10.8162 7.539 11.4392 6.839 12.2232 6.349C13.0072 5.859 13.8822 5.614 14.8482 5.614C15.6742 5.614 16.3952 5.782 17.0112 6.118C17.6412 6.454 18.1242 6.895 18.4602 7.441V5.782H22.0512V17.5H18.4602V15.841C18.1102 16.387 17.6202 16.828 16.9902 17.164C16.3742 17.5 15.6532 17.668 14.8272 17.668C13.8752 17.668 13.0072 17.423 12.2232 16.933C11.4392 16.429 10.8162 15.722 10.3542 14.812C9.90624 13.888 9.68224 12.824 9.68224 11.62ZM18.4602 11.641C18.4602 10.745 18.2082 10.038 17.7042 9.52C17.2142 9.002 16.6122 8.743 15.8982 8.743C15.1842 8.743 14.5752 9.002 14.0712 9.52C13.5812 10.024 13.3362 10.724 13.3362 11.62C13.3362 12.516 13.5812 13.23 14.0712 13.762C14.5752 14.28 15.1842 14.539 15.8982 14.539C16.6122 14.539 17.2142 14.28 17.7042 13.762C18.2082 13.244 18.4602 12.537 18.4602 11.641ZM31.7892 5.656C33.1612 5.656 34.2532 6.104 35.0652 7C35.8912 7.882 36.3042 9.1 36.3042 10.654V17.5H32.7342V11.137C32.7342 10.353 32.5312 9.744 32.1252 9.31C31.7192 8.876 31.1732 8.659 30.4872 8.659C29.8012 8.659 29.2552 8.876 28.8492 9.31C28.4432 9.744 28.2402 10.353 28.2402 11.137V17.5H24.6492V5.782H28.2402V7.336C28.6042 6.818 29.0942 6.412 29.7102 6.118C30.3262 5.81 31.0192 5.656 31.7892 5.656ZM38.0856 11.62C38.0856 10.416 38.3096 9.359 38.7576 8.449C39.2196 7.539 39.8426 6.839 40.6266 6.349C41.4106 5.859 42.2856 5.614 43.2516 5.614C44.0216 5.614 44.7216 5.775 45.3516 6.097C45.9956 6.419 46.4996 6.853 46.8636 7.399V1.96H50.4546V17.5H46.8636V15.82C46.5276 16.38 46.0446 16.828 45.4146 17.164C44.7986 17.5 44.0776 17.668 43.2516 17.668C42.2856 17.668 41.4106 17.423 40.6266 16.933C39.8426 16.429 39.2196 15.722 38.7576 14.812C38.3096 13.888 38.0856 12.824 38.0856 11.62ZM46.8636 11.641C46.8636 10.745 46.6116 10.038 46.1076 9.52C45.6176 9.002 45.0156 8.743 44.3016 8.743C43.5876 8.743 42.9786 9.002 42.4746 9.52C41.9846 10.024 41.7396 10.724 41.7396 11.62C41.7396 12.516 41.9846 13.23 42.4746 13.762C42.9786 14.28 43.5876 14.539 44.3016 14.539C45.0156 14.539 45.6176 14.28 46.1076 13.762C46.6116 13.244 46.8636 12.537 46.8636 11.641ZM54.8585 4.564C54.2285 4.564 53.7105 4.382 53.3045 4.018C52.9125 3.64 52.7165 3.178 52.7165 2.632C52.7165 2.072 52.9125 1.61 53.3045 1.246C53.7105 0.867999 54.2285 0.678999 54.8585 0.678999C55.4745 0.678999 55.9785 0.867999 56.3705 1.246C56.7765 1.61 56.9795 2.072 56.9795 2.632C56.9795 3.178 56.7765 3.64 56.3705 4.018C55.9785 4.382 55.4745 4.564 54.8585 4.564ZM56.6435 5.782V17.5H53.0525V5.782H56.6435ZM66.3858 5.656C67.7578 5.656 68.8498 6.104 69.6618 7C70.4878 7.882 70.9008 9.1 70.9008 10.654V17.5H67.3308V11.137C67.3308 10.353 67.1278 9.744 66.7218 9.31C66.3158 8.876 65.7698 8.659 65.0838 8.659C64.3978 8.659 63.8518 8.876 63.4458 9.31C63.0398 9.744 62.8368 10.353 62.8368 11.137V17.5H59.2458V5.782H62.8368V7.336C63.2008 6.818 63.6908 6.412 64.3068 6.118C64.9228 5.81 65.6158 5.656 66.3858 5.656ZM77.8482 5.614C78.6742 5.614 79.3952 5.782 80.0112 6.118C80.6412 6.454 81.1242 6.895 81.4602 7.441V5.782H85.0512V17.479C85.0512 18.557 84.8342 19.53 84.4002 20.398C83.9802 21.28 83.3292 21.98 82.4472 22.498C81.5792 23.016 80.4942 23.275 79.1922 23.275C77.4562 23.275 76.0492 22.862 74.9712 22.036C73.8932 21.224 73.2772 20.118 73.1232 18.718H76.6722C76.7842 19.166 77.0502 19.516 77.4702 19.768C77.8902 20.034 78.4082 20.167 79.0242 20.167C79.7662 20.167 80.3542 19.95 80.7882 19.516C81.2362 19.096 81.4602 18.417 81.4602 17.479V15.82C81.1102 16.366 80.6272 16.814 80.0112 17.164C79.3952 17.5 78.6742 17.668 77.8482 17.668C76.8822 17.668 76.0072 17.423 75.2232 16.933C74.4392 16.429 73.8162 15.722 73.3542 14.812C72.9062 13.888 72.6822 12.824 72.6822 11.62C72.6822 10.416 72.9062 9.359 73.3542 8.449C73.8162 7.539 74.4392 6.839 75.2232 6.349C76.0072 5.859 76.8822 5.614 77.8482 5.614ZM81.4602 11.641C81.4602 10.745 81.2082 10.038 80.7042 9.52C80.2142 9.002 79.6122 8.743 78.8982 8.743C78.1842 8.743 77.5752 9.002 77.0712 9.52C76.5812 10.024 76.3362 10.724 76.3362 11.62C76.3362 12.516 76.5812 13.23 77.0712 13.762C77.5752 14.28 78.1842 14.539 78.8982 14.539C79.6122 14.539 80.2142 14.28 80.7042 13.762C81.2082 13.244 81.4602 12.537 81.4602 11.641ZM97.7502 7.147C97.7502 8.365 97.3302 9.38 96.4902 10.192C95.6642 10.99 94.3972 11.389 92.6892 11.389H89.8752V17.5H87.9642V2.863H92.6892C94.3412 2.863 95.5942 3.262 96.4482 4.06C97.3162 4.858 97.7502 5.887 97.7502 7.147ZM92.6892 9.814C93.7532 9.814 94.5372 9.583 95.0412 9.121C95.5452 8.659 95.7972 8.001 95.7972 7.147C95.7972 5.341 94.7612 4.438 92.6892 4.438H89.8752V9.814H92.6892ZM99.4113 11.704C99.4113 10.528 99.6493 9.499 100.125 8.617C100.601 7.721 101.252 7.028 102.078 6.538C102.918 6.048 103.849 5.803 104.871 5.803C105.879 5.803 106.754 6.02 107.496 6.454C108.238 6.888 108.791 7.434 109.155 8.092V5.992H111.087V17.5H109.155V15.358C108.777 16.03 108.21 16.59 107.454 17.038C106.712 17.472 105.844 17.689 104.85 17.689C103.828 17.689 102.904 17.437 102.078 16.933C101.252 16.429 100.601 15.722 100.125 14.812C99.6493 13.902 99.4113 12.866 99.4113 11.704ZM109.155 11.725C109.155 10.857 108.98 10.101 108.63 9.457C108.28 8.813 107.804 8.323 107.202 7.987C106.614 7.637 105.963 7.462 105.249 7.462C104.535 7.462 103.884 7.63 103.296 7.966C102.708 8.302 102.239 8.792 101.889 9.436C101.539 10.08 101.364 10.836 101.364 11.704C101.364 12.586 101.539 13.356 101.889 14.014C102.239 14.658 102.708 15.155 103.296 15.505C103.884 15.841 104.535 16.009 105.249 16.009C105.963 16.009 106.614 15.841 107.202 15.505C107.804 15.155 108.28 14.658 108.63 14.014C108.98 13.356 109.155 12.593 109.155 11.725ZM119.063 5.803C120.057 5.803 120.925 6.02 121.667 6.454C122.423 6.888 122.983 7.434 123.347 8.092V5.992H125.279V17.752C125.279 18.802 125.055 19.733 124.607 20.545C124.159 21.371 123.515 22.015 122.675 22.477C121.849 22.939 120.883 23.17 119.777 23.17C118.265 23.17 117.005 22.813 115.997 22.099C114.989 21.385 114.394 20.412 114.212 19.18H116.102C116.312 19.88 116.746 20.44 117.404 20.86C118.062 21.294 118.853 21.511 119.777 21.511C120.827 21.511 121.681 21.182 122.339 20.524C123.011 19.866 123.347 18.942 123.347 17.752V15.337C122.969 16.009 122.409 16.569 121.667 17.017C120.925 17.465 120.057 17.689 119.063 17.689C118.041 17.689 117.11 17.437 116.27 16.933C115.444 16.429 114.793 15.722 114.317 14.812C113.841 13.902 113.603 12.866 113.603 11.704C113.603 10.528 113.841 9.499 114.317 8.617C114.793 7.721 115.444 7.028 116.27 6.538C117.11 6.048 118.041 5.803 119.063 5.803ZM123.347 11.725C123.347 10.857 123.172 10.101 122.822 9.457C122.472 8.813 121.996 8.323 121.394 7.987C120.806 7.637 120.155 7.462 119.441 7.462C118.727 7.462 118.076 7.63 117.488 7.966C116.9 8.302 116.431 8.792 116.081 9.436C115.731 10.08 115.556 10.836 115.556 11.704C115.556 12.586 115.731 13.356 116.081 14.014C116.431 14.658 116.9 15.155 117.488 15.505C118.076 15.841 118.727 16.009 119.441 16.009C120.155 16.009 120.806 15.841 121.394 15.505C121.996 15.155 122.472 14.658 122.822 14.014C123.172 13.356 123.347 12.593 123.347 11.725ZM139.008 11.305C139.008 11.669 138.987 12.054 138.945 12.46H129.747C129.817 13.594 130.202 14.483 130.902 15.127C131.616 15.757 132.477 16.072 133.485 16.072C134.311 16.072 134.997 15.883 135.543 15.505C136.103 15.113 136.495 14.595 136.719 13.951H138.777C138.469 15.057 137.853 15.96 136.929 16.66C136.005 17.346 134.857 17.689 133.485 17.689C132.393 17.689 131.413 17.444 130.545 16.954C129.691 16.464 129.019 15.771 128.529 14.875C128.039 13.965 127.794 12.915 127.794 11.725C127.794 10.535 128.032 9.492 128.508 8.596C128.984 7.7 129.649 7.014 130.503 6.538C131.371 6.048 132.365 5.803 133.485 5.803C134.577 5.803 135.543 6.041 136.383 6.517C137.223 6.993 137.867 7.651 138.315 8.491C138.777 9.317 139.008 10.255 139.008 11.305ZM137.034 10.906C137.034 10.178 136.873 9.555 136.551 9.037C136.229 8.505 135.788 8.106 135.228 7.84C134.682 7.56 134.073 7.42 133.401 7.42C132.435 7.42 131.609 7.728 130.923 8.344C130.251 8.96 129.866 9.814 129.768 10.906H137.034Z" fill="#2D2D2D"/>
</svg>
